ik_tiny_file
version=1
nRows=13
nColumns=40
inDegrees=yes
endheader
time	pelvis_tilt	pelvis_list	pelvis_rotation	pelvis_tx	pelvis_ty	pelvis_tz	hip_flexion_r	hip_adduction_r	hip_rotation_r	knee_angle_r	knee_angle_r_beta	ankle_angle_r	subtalar_angle_r	mtp_angle_r	hip_flexion_l	hip_adduction_l	hip_rotation_l	knee_angle_l	knee_angle_l_beta	ankle_angle_l	subtalar_angle_l	mtp_angle_l	lumbar_extension	lumbar_bending	lumbar_rotation	arm_flex_r	arm_add_r	arm_rot_r	elbow_flex_r	pro_sup_r	wrist_flex_r	wrist_dev_r	arm_flex_l	arm_add_l	arm_rot_l	elbow_flex_l	pro_sup_l	wrist_flex_l	wrist_dev_l
      6.08000000	     97.46131557	      1.71336627	      5.72107695	      0.00000000	      0.94000000	      0.00000000	     40.03098461	     -9.97857761	      0.00000000	     52.12845246	      0.90981313	     -4.69577053	      0.00000000	      0.00000000	     40.03098461	     -9.97857761	      0.00000000	     52.12845246	      0.90981313	     -4.69577053	      0.00000000	      0.00000000	    -89.96374695	     11.82881503	     11.40800639	    -84.40268493	     12.71786627	    -19.73612153	    141.44467214	     44.75499877	      0.00000000	      4.99965651	     -5.29027196	      5.92084551	     10.05187439	      0.15606009	     44.75499877	      0.00000000	      4.99965651
      6.10000000	     97.44885366	      1.69508799	      5.71444312	      0.00000000	      0.94000000	      0.00000000	     40.09561040	     -9.97975679	      0.00000000	     52.19687743	      0.91100737	     -4.70171141	      0.00000000	      0.00000000	     40.09561040	     -9.97975679	      0.00000000	     52.19687743	      0.91100737	     -4.70171141	      0.00000000	      0.00000000	    -89.96404472	     11.77895916	     11.31302598	    -84.51731311	     12.92851271	    -19.12798239	    145.64712950	     44.76557663	      0.00000000	      4.99968869	     -5.24653829	      5.89165735	      9.98888328	      0.15815145	     44.76557663	      0.00000000	      4.99968869
      6.12000000	     97.40410211	      1.63435255	      5.70878581	      0.00000000	      0.94000000	      0.00000000	     40.18631361	     -9.98122287	      0.00000000	     52.30246691	      0.91285025	     -4.70978281	      0.00000000	      0.00000000	     40.18631361	     -9.98122287	      0.00000000	     52.30246691	      0.91285025	     -4.70978281	      0.00000000	      0.00000000	    -89.96414152	     11.79885521	     11.30622793	    -84.07209667	     12.81459628	    -18.83913794	    149.04905768	     44.77903829	      0.00000000	      4.99972618	     -5.17090922	      5.96216898	     10.02065327	      0.15909565	     44.77903829	      0.00000000	      4.99972618
      6.14000000	     97.42867375	      1.56779064	      5.73170428	      0.00000000	      0.94000000	      0.00000000	     40.26835177	     -9.98229843	      0.00000000	     52.40632759	      0.91466297	     -4.71666358	      0.00000000	      0.00000000	     40.26835177	     -9.98229843	      0.00000000	     52.40632759	      0.91466297	     -4.71666358	      0.00000000	      0.00000000	    -89.96407067	     11.87218523	     11.41232222	    -82.51736896	     12.31366841	    -19.36937396	    149.85815755	     44.78927308	      0.00000000	      4.99975149	     -5.27859342	      6.04301736	     10.21465840	      0.15800245	     44.78927308	      0.00000000	      4.99975149
      6.16000000	     97.42326764	      1.49716562	      5.69858967	      0.00000000	      0.94000000	      0.00000000	     40.33515403	     -9.98310275	      0.00000000	     52.49171266	      0.91615322	     -4.72213743	      0.00000000	      0.00000000	     40.33515403	     -9.98310275	      0.00000000	     52.49171266	      0.91615322	     -4.72213743	      0.00000000	      0.00000000	    -89.96431041	     11.79419932	     11.48110075	    -80.48864929	     11.50252802	    -19.83935644	    149.93513365	     44.79703763	      0.00000000	      4.99976987	     -5.29455060	      5.98420498	     10.29564392	      0.15965715	     44.79703763	      0.00000000	      4.99976987
      6.18000000	     97.38441940	      1.46186208	      5.70785107	      0.00000000	      0.94000000	      0.00000000	     40.53061707	     -9.98476570	      0.00000000	     52.74484644	      0.92057123	     -4.73707882	      0.00000000	      0.00000000	     40.53061707	     -9.98476570	      0.00000000	     52.74484644	      0.92057123	     -4.73707882	      0.00000000	      0.00000000	    -89.96443592	     11.80958794	     11.61759268	    -78.35402534	     10.49027122	    -20.40736933	    149.95522664	     44.81444800	      0.00000000	      4.99980043	     -5.27501926	      5.97411455	     10.43808063	      0.16204413	     44.81444800	      0.00000000	      4.99980043
      6.20000000	     97.35186767	      1.41516924	      5.70330757	      0.00000000	      0.94000000	      0.00000000	     40.71530203	     -9.98630279	      0.00000000	     52.98583167	      0.92477722	     -4.75113435	      0.00000000	      0.00000000	     40.71530203	     -9.98630279	      0.00000000	     52.98583167	      0.92477722	     -4.75113435	      0.00000000	      0.00000000	    -89.96417942	     11.82724749	     11.84030093	    -76.13433964	      9.44723392	    -21.16366322	    149.96496297	     44.83062586	      0.00000000	      4.99982814	     -5.29212135	      6.00524120	     10.73207892	      0.16048513	     44.83062586	      0.00000000	      4.99982814
      6.22000000	     97.32712542	      1.38915219	      5.73443103	      0.00000000	      0.94000000	      0.00000000	     40.97447978	     -9.98847809	      0.00000000	     53.32643736	      0.93072191	     -4.77089138	      0.00000000	      0.00000000	     40.97447978	     -9.98847809	      0.00000000	     53.32643736	      0.93072191	     -4.77089138	      0.00000000	      0.00000000	    -89.96441614	     11.87321535	     12.12398724	    -73.78205700	      8.28454891	    -21.89025489	    149.97212450	     44.85347992	      0.00000000	      4.99986730	     -5.31908250	      5.99879045	     11.13411420	      0.16805350	     44.85347992	      0.00000000	      4.99986730
      6.24000000	     97.28704389	      1.35454186	      5.75968633	      0.00000000	      0.94000000	      0.00000000	     41.23507908	     -9.99043260	      0.00000000	     53.67294039	      0.93676953	     -4.79036981	      0.00000000	      0.00000000	     41.23507908	     -9.99043260	      0.00000000	     53.67294039	      0.93676953	     -4.79036981	      0.00000000	      0.00000000	    -89.96405832	     11.90540221	     12.51033063	    -71.67597078	      6.82221664	    -22.65060549	    149.97584595	     44.87463031	      0.00000000	      4.99989934	     -5.35456733	      5.99577059	     11.58864054	      0.16519421	     44.87463031	      0.00000000	      4.99989934
      6.26000000	     97.25067696	      1.35091010	      5.76563515	      0.00000000	      0.94000000	      0.00000000	     41.46324538	     -9.99192303	      0.00000000	     53.97965844	      0.94212277	     -4.80699407	      0.00000000	      0.00000000	     41.46324538	     -9.99192303	      0.00000000	     53.97965844	      0.94212277	     -4.80699407	      0.00000000	      0.00000000	    -89.96372526	     11.91531322	     12.99394544	    -69.60725269	      5.80919082	    -23.51588672	    149.97891737	     44.89132388	      0.00000000	      4.99992143	     -5.42096762	      5.97474506	     12.12723590	      0.16739109	     44.89132388	      0.00000000	      4.99992143
      6.28000000	     97.23818244	      1.37242795	      5.82582403	      0.00000000	      0.94000000	      0.00000000	     41.69088099	     -9.99327702	      0.00000000	     54.28926173	      0.94752637	     -4.82329842	      0.00000000	      0.00000000	     41.69088099	     -9.99327702	      0.00000000	     54.28926173	      0.94752637	     -4.82329842	      0.00000000	      0.00000000	    -89.96337504	     11.99576781	     13.41376419	    -67.71173920	      4.58363998	    -24.29194763	    149.98126261	     44.90685348	      0.00000000	      4.99994010	     -5.46876829	      5.94117593	     12.53627011	      0.16960677	     44.90685348	      0.00000000	      4.99994010
      6.30000000	     97.24568419	      1.41599755	      5.84837791	      0.00000000	      0.94000000	      0.00000000	     41.90282812	     -9.99440172	      0.00000000	     54.58126347	      0.95262276	     -4.83816456	      0.00000000	      0.00000000	     41.90282812	     -9.99440172	      0.00000000	     54.58126347	      0.95262276	     -4.83816456	      0.00000000	      0.00000000	    -89.96325146	     12.02604327	     13.76713321	    -65.85645404	      3.29538901	    -24.98933110	    149.98284089	     44.92012995	      0.00000000	      4.99995432	     -5.52927556	      5.94806491	     12.92573144	      0.16721447	     44.92012995	      0.00000000	      4.99995432
      6.32000000	     97.20682321	      1.43758813	      5.84424754	      0.00000000	      0.94000000	      0.00000000	     42.10545740	     -9.99534274	      0.00000000	     54.86388289	      0.95755540	     -4.85202674	      0.00000000	      0.00000000	     42.10545740	     -9.99534274	      0.00000000	     54.86388289	      0.95755540	     -4.85202674	      0.00000000	      0.00000000	    -89.96285870	     12.02125480	     14.17121350	    -64.10443954	      2.09132666	    -25.65204682	    149.98394785	     44.93161021	      0.00000000	      4.99996514	     -5.55325665	      5.94937858	     13.35960016	      0.16291448	     44.93161021	      0.00000000	      4.99996514
